<svg width="16" height="16" viewBox="0 0 16 16" fill="none" xmlns="http://www.w3.org/2000/svg">
<style>
    path { fill: #AAA89F; }
    @media (prefers-color-scheme: dark) {
    path { fill: #ffffff; }
    }
</style>
    <path fill-rule="evenodd" clip-rule="evenodd" d="M3.63071 0H12.3689C14.374 0 15.9996 1.6256 16 3.6308V12.3692C16 14.3744 14.3744 16 12.3693 16H3.63071C1.62556 16 0 14.3744 0 12.3696V3.6308C0 1.6256 1.62556 0 3.63071 0ZM3.92351 12.466C4.13071 12.466 4.29871 12.298 4.29871 12.0908V9.0052C4.29871 8.798 4.13071 8.63 3.92351 8.63C3.71631 8.63 3.54831 8.798 3.54831 9.0052V12.0908C3.54831 12.298 3.71631 12.466 3.92351 12.466ZM3.92351 7.3904C4.13071 7.3904 4.29871 7.2224 4.29871 7.0152V3.9296C4.29871 3.7224 4.13071 3.5544 3.92351 3.5544C3.71631 3.5544 3.54831 3.7224 3.54831 3.9296V7.0152C3.54831 7.2224 3.71631 7.3904 3.92351 7.3904ZM5.46988 12.466C5.67705 12.466 5.84505 12.298 5.84505 12.0908V9.0052C5.84505 8.798 5.67705 8.63 5.46988 8.63C5.26268 8.63 5.09468 8.798 5.09468 9.0052V12.0908C5.09468 12.298 5.26268 12.466 5.46988 12.466ZM7.01582 12.466C7.22302 12.466 7.39102 12.298 7.39102 12.0908V9.0052C7.39102 8.798 7.22302 8.63 7.01582 8.63C6.80862 8.63 6.64065 8.798 6.64065 9.0052V12.0908C6.64065 12.298 6.80862 12.466 7.01582 12.466ZM7.01582 7.3904C7.22302 7.3904 7.39102 7.2224 7.39102 7.0152V3.9296C7.39102 3.7224 7.22302 3.5544 7.01582 3.5544C6.80862 3.5544 6.64065 3.7224 6.64065 3.9296V7.0152C6.64065 7.2224 6.80862 7.3904 7.01582 7.3904ZM8.99739 12.3664H12.0829C12.2797 12.3664 12.4393 12.2068 12.4393 12.01C12.4393 11.8132 12.2797 11.6536 12.0829 11.6536H8.99739C8.80059 11.6536 8.64099 11.8132 8.64099 12.01C8.64099 12.2068 8.80059 12.3664 8.99739 12.3664ZM8.99459 8.7332C8.79779 8.7332 8.63819 8.8928 8.63819 9.0896C8.63819 9.2868 8.79779 9.4464 8.99459 9.446H12.0801C12.2769 9.446 12.4365 9.2864 12.4365 9.0896C12.4365 8.8928 12.2769 8.7332 12.0801 8.7332H8.99459ZM8.99739 10.9044H12.0829C12.2797 10.9044 12.4393 10.7448 12.4393 10.548C12.4393 10.3512 12.2797 10.1916 12.0829 10.1916H8.99739C8.80059 10.1916 8.64099 10.3512 8.64099 10.548C8.64099 10.7448 8.80059 10.9044 8.99739 10.9044ZM10.5365 7.3936C11.0657 7.3936 11.5485 7.178 11.8949 6.8308C12.2417 6.4844 12.4577 6.0016 12.4577 5.4724C12.4577 4.9432 12.2421 4.4604 11.8949 4.114C11.5485 3.7668 11.0657 3.5512 10.5365 3.5512C10.0074 3.5512 9.52455 3.7668 9.17818 4.114C8.83098 4.4604 8.61498 4.9432 8.61538 5.4724C8.61538 6.0016 8.83098 6.4844 9.17818 6.8308C9.52455 7.178 10.0074 7.3936 10.5365 7.3936ZM9.70938 4.64523C9.92219 4.43283 10.2126 4.30243 10.537 4.30243C10.8614 4.30243 11.1514 4.43283 11.3645 4.64523C11.5769 4.85803 11.7069 5.14843 11.7073 5.47283C11.7073 5.79723 11.5769 6.08723 11.3645 6.30043C11.1518 6.51283 10.8614 6.64323 10.537 6.64323C10.2126 6.64323 9.92258 6.51283 9.70938 6.30043C9.49698 6.08763 9.36659 5.79723 9.36659 5.47283C9.36659 5.14843 9.49698 4.85843 9.70938 4.64523Z" />
</svg>